<svg width="512" height="512" viewBox="0 0 512 512" fill="none" xmlns="http://www.w3.org/2000/svg">
  <rect width="512" height="512" rx="128" fill="#8D153A"/>
  <path d="M256 120C180.89 120 120 180.89 120 256C120 331.11 180.89 392 256 392C331.11 392 392 331.11 392 256C392 180.89 331.11 120 256 120ZM256 360C198.56 360 152 313.44 152 256C152 198.56 198.56 152 256 152C313.44 152 360 198.56 360 256C360 313.44 313.44 360 256 360Z" fill="#FFBE29"/>
  <path d="M256 180V256L310 310" stroke="#FFBE29" stroke-width="32" stroke-linecap="round" stroke-linejoin="round"/>
  <path d="M360 256H392" stroke="#FFBE29" stroke-width="24" stroke-linecap="round"/>
  <path d="M120 256H152" stroke="#FFBE29" stroke-width="24" stroke-linecap="round"/>
  <path d="M256 120V152" stroke="#FFBE29" stroke-width="24" stroke-linecap="round"/>
  <path d="M256 360V392" stroke="#FFBE29" stroke-width="24" stroke-linecap="round"/>
  <text x="256" y="460" font-family="serif" font-size="48" fill="white" text-anchor="middle" letter-spacing="4">CEYLON RS</text>
</svg>
